<svg width="20" height="20" viewBox="0 0 24 24" fill="none" xmlns="http://www.w3.org/2000/svg">
<path d="M19 19.9999H5.00001C4.73479 19.9999 4.48044 20.1052 4.2929 20.2928C4.10536 20.4803 4.00001 20.7346 4.00001 20.9999C4.00001 21.2651 4.10536 21.5194 4.2929 21.707C4.48044 21.8945 4.73479 21.9999 5.00001 21.9999H19C19.2652 21.9999 19.5196 21.8945 19.7071 21.707C19.8947 21.5194 20 21.2651 20 20.9999C20 20.7346 19.8947 20.4803 19.7071 20.2928C19.5196 20.1052 19.2652 19.9999 19 19.9999ZM5.00001 17.9999H5.09001L9.26001 17.6199C9.7168 17.5744 10.144 17.3731 10.47 17.0499L19.47 8.04986C19.8193 7.68083 20.0081 7.18837 19.995 6.68039C19.9819 6.17242 19.7679 5.69037 19.4 5.33986L16.66 2.59986C16.3024 2.26395 15.8338 2.07122 15.3433 2.05831C14.8529 2.0454 14.3748 2.21323 14 2.52986L5.00001 11.5299C4.67677 11.8558 4.47551 12.2831 4.43001 12.7399L4.00001 16.9099C3.98654 17.0563 4.00554 17.204 4.05567 17.3422C4.10579 17.4805 4.18581 17.606 4.29001 17.7099C4.38345 17.8025 4.49426 17.8759 4.6161 17.9256C4.73794 17.9754 4.8684 18.0006 5.00001 17.9999ZM15.27 3.99986L18 6.72986L16 8.67986L13.32 5.99986L15.27 3.99986Z" fill="black"/>
</svg>
